<svg width="11" height="11" viewBox="0 0 11 11" fill="none" xmlns="http://www.w3.org/2000/svg">
<path d="M9.45221 2.23497C7.49873 0.281451 4.33654 0.281139 2.38275 2.23497C0.429205 4.1885 0.428912 7.35064 2.38275 9.30446C4.33623 11.258 7.49841 11.2583 9.45221 9.30446C11.4058 7.35093 11.406 4.18879 9.45221 2.23497ZM9.24328 8.59188C9.00972 8.38302 8.75988 8.19819 8.49654 8.03891C8.6706 7.43766 8.77372 6.77603 8.7981 6.08827H10.2678C10.2013 7.01531 9.84513 7.88493 9.24328 8.59188ZM1.56716 6.08827H3.03684C3.06122 6.77603 3.16434 7.43766 3.33839 8.03891C3.07505 8.19819 2.82522 8.38302 2.59166 8.59188C1.98981 7.88493 1.63363 7.01531 1.56716 6.08827ZM2.59168 2.94756C2.82524 3.15641 3.07507 3.34124 3.33841 3.50052C3.16435 4.10177 3.06124 4.7634 3.03686 5.45116H1.56716C1.63363 4.52414 1.98981 3.65452 2.59168 2.94756ZM5.59893 3.56637C5.07939 3.52921 4.57845 3.40125 4.11405 3.19015C4.38414 2.49464 4.88205 1.66046 5.59893 1.45374V3.56637ZM5.59893 4.20467V5.45118H3.67423C3.69628 4.86939 3.77872 4.31072 3.91581 3.79956C4.44356 4.03027 5.01115 4.16804 5.59893 4.20467ZM5.59893 6.08827V7.33478C5.01115 7.37141 4.44356 7.50919 3.91581 7.7399C3.77872 7.22873 3.69628 6.67007 3.67423 6.08827H5.59893ZM5.59893 7.97308V10.0857C4.88209 9.87897 4.38418 9.04488 4.11405 8.3493C4.57845 8.1382 5.07939 8.01024 5.59893 7.97308ZM6.23603 7.97308C6.75556 8.01024 7.2565 8.1382 7.72091 8.3493C7.4508 9.04483 6.9529 9.87897 6.23603 10.0857V7.97308ZM6.23603 7.33478V6.08827H8.16073C8.13867 6.67007 8.05624 7.22873 7.91915 7.7399C7.39139 7.50919 6.82381 7.37141 6.23603 7.33478ZM6.23603 5.45118V4.20467C6.82381 4.16804 7.39139 4.03027 7.91915 3.79956C8.05624 4.31072 8.13867 4.86939 8.16073 5.45118H6.23603ZM6.23603 3.56637V1.45376C6.9529 1.66048 7.45082 2.49466 7.72091 3.19017C7.2565 3.40125 6.75556 3.52921 6.23603 3.56637ZM7.66689 1.7718C8.07466 1.95036 8.45509 2.19249 8.79612 2.49291C8.6338 2.63603 8.46251 2.76581 8.28365 2.88187C8.12482 2.48859 7.92192 2.10641 7.66689 1.7718ZM3.55129 2.88187C3.37243 2.76581 3.20116 2.63603 3.03881 2.49291C3.37984 2.19249 3.76027 1.95036 4.16805 1.7718C3.91302 2.10645 3.71012 2.48863 3.55129 2.88187ZM3.5513 8.65758C3.71012 9.05084 3.91306 9.43304 4.16807 9.76765C3.76029 9.58909 3.37986 9.34696 3.03883 9.04654C3.20116 8.90342 3.37245 8.77364 3.5513 8.65758ZM8.28365 8.65758C8.46251 8.77364 8.6338 8.90342 8.79612 9.04652C8.45509 9.34694 8.07466 9.58907 7.66689 9.76764C7.9219 9.43306 8.12482 9.05086 8.28365 8.65758ZM8.79811 5.45118C8.77374 4.76342 8.67062 4.10177 8.49656 3.50054C8.7599 3.34126 9.00972 3.15643 9.2433 2.94758C9.84515 3.65452 10.2013 4.52414 10.2678 5.45118H8.79811Z" fill="#56CCF2"/>
</svg>
